# xmcd CD database file
#
# Track frame offsets:
#	150
#	14867
#	29980
#	45975
#	59915
#	73032
#	83317
#	98175
#	114745
#	126322
#	141080
#	156340
#
# Disc length: 2310 seconds
#
# Revision: 0
# Processed by: cddbd v1.5.1PL0 Copyright (c) Steve Scherf et al.
# Submitted via: CDex 1.51
#
DISCID=b209040c
DTITLE=NIKOLA SARCEVIC - LOCK-SPORT-KROCK (Japan)
DYEAR=2004
DGENRE=Acoustic
TTITLE0=LOVETRAP
TTITLE1=VIOLA
TTITLE2=NOBODY WITHOUT YOU
TTITLE3=LOCK-SPORT-KROCK
TTITLE4=GLUE GIRL
TTITLE5=YOU MAKE MY WORLD GO AROUND
TTITLE6=NEW FOOL
TTITLE7=GOODBYE I DIE
TTITLE8=MIRROR MAN
TTITLE9=MY AIM IS YOU
TTITLE10=VILA RADA
TTITLE11=JUST ME
EXTD=YEAR: 2004
EXTT0=
EXTT1=
EXTT2=
EXTT3=
EXTT4=
EXTT5=
EXTT6=
EXTT7=
EXTT8=
EXTT9=
EXTT10=
EXTT11=
PLAYORDER=
